<svg id="Layer_1" data-name="Layer 1" xmlns="http://www.w3.org/2000/svg" viewBox="0 0 785 785.02"><defs><style>.cls-1{fill:#009772;}</style></defs><title>Vector</title><g id="New_Symbol" data-name="New Symbol"><path class="cls-1" d="M589.83,830.58c49-10.52,91.25-30.43,128.31-61.52,28.34-23.77,51.73-51.43,69.7-83.87A281.73,281.73,0,0,0,821,584.87a298.91,298.91,0,0,0-.92-83.67,286.39,286.39,0,0,0-45.91-118.88,281.77,281.77,0,0,0-94.93-88.55c-14.78-8.45-14.49-8.25-9.83-25.33,6.6-24.2,12.62-48.56,18.93-72.84a38.23,38.23,0,0,1,1.89-4.31Q797,238.74,860.43,335.59c47.46,72.43,69.22,152.72,63.23,239.08-7.92,114-56.51,208.76-145.37,280.56s-191.56,98.18-305.44,83.33V683.78c38.74,14.8,77.42,15,117-.34Z" transform="translate(-139.63 -157.53)"/><path class="cls-1" d="M589.33,402.08c-39-14.36-77.53-14.45-117.09.2V262.53c-33.36,4.1-62.3,17-89.83,33.52-21.49,12.92-41.54,27.83-58.68,46.15-38.87,41.54-65,89.66-76.37,145.93a297.13,297.13,0,0,0-4.49,83.66,282.67,282.67,0,0,0,25.19,94.57c17.42,38,42.66,69.85,73.12,97.89,6.3,5.8,13.7,10.38,20.21,16,1.72,1.49,3.45,5.37,2.69,7-14.64,30.7-29.65,61.23-45.33,93.31-16.34-12.73-32.51-23.81-46.91-36.83-39-35.26-71.15-76-93.57-123.82-16.5-35.22-29.14-71.76-33.53-110.63-2.46-21.82-5.21-43.78-5.11-65.67.15-34.13,5.91-67.72,15.13-100.69,13.83-49.42,37-94.13,68.4-134.43,30.85-39.58,68.28-71.83,111.75-97.2a395.54,395.54,0,0,1,143.23-49.88c22.59-3.31,45.73-3.45,68.64-3.82,12.37-.2,24.83,1.89,37.15,3.62,2.16.3,4,3.78,5.68,6,.58.78.11,2.33.11,3.53q0,111.59,0,223.17C589.71,396.25,589.5,398.6,589.33,402.08Z" transform="translate(-139.63 -157.53)"/><path class="cls-1" d="M472.28,545.41c0-21,.16-42-.1-63-.07-5.93,1.55-9.57,6.9-13.07,31.7-20.77,74.37-20.52,104.54,1.84,3.2,2.37,5.8,7.81,5.84,11.85q.63,63.42,0,126.85c0,3.33-2.66,7.56-5.38,9.8-27.87,22.85-77.69,22.26-104.61,2.68-5.2-3.78-7.43-7.62-7.33-14C472.48,587.39,472.28,566.4,472.28,545.41Z" transform="translate(-139.63 -157.53)"/><path class="cls-1" d="M594.69,674.25c0-17.61-.21-34.93.22-52.24.07-2.75,2.56-5.88,4.7-8.07,37.37-38.24,37.29-98.55-.14-137.25-2.27-2.35-4.51-5.95-4.58-9-.43-18.26-.21-36.53-.21-54.95,37.78,11.38,78.61,61.43,83.14,117C683.74,602.46,637.51,657.07,594.69,674.25Z" transform="translate(-139.63 -157.53)"/><path class="cls-1" d="M467.32,412c0,19,1,37-.54,54.82-.5,5.94-6.85,11.74-11.33,16.92-28.64,33.1-30.16,86-3.2,119.92a11.86,11.86,0,0,0,1.79,2c13.93,10.91,14.55,25.92,13.4,41.77-.64,8.82-.11,17.72-.11,27-41.39-16.81-86.41-70.16-83.26-138.55C386.63,480,424.67,428.22,467.32,412Z" transform="translate(-139.63 -157.53)"/></g></svg>